Patient4_TMGait_0pt7_01_right_37_EMG.mot
version=1
nRows=23
nColumns=33
inDegrees=no
endheader
time	1LAddLong	2LGlutMax	3LGlutMed	4LIliopsoas	5LSemiMemb	6LBicFemLong	7LRecFem	8LVastMed	9LVastLat	10LGasMed	11LTibAnt	12lTibPost	13LPeroneusLong	14LSol	15LExtDigLong	16LFlexDigLong	17RAddLong	18RGlutMax	19RGlutMed	20RIliopsoas	21RSemiMemb	22RBicFemLong	23RRecFem	24RVastMed	25RVastLat	26RGasMed	27RTibAnt	28RTibPost	29RPeroneusLong	30RSol	31RExtDigLong	32RFlexDigLong
43.04	-0.011139	0.62668	0.035248	0.020142	-0.10925	-0.074615	0.15121	-0.012054	-0.1181	0.000916	0.007477	-0.036011	0.41031	0.28442	0.006866	-0.077209	0.016022	-0.23819	-0.29159	-0.098419	-0.020447	-0.083008	-0.50751	0.048065	0.041046	-0.041199	0.13306	-0.034027	0.25314	0.27283	0.002899	-0.02594
43.041	-0.019226	0.76126	0.021057	-0.002594	-0.15381	0.016327	0.15472	-0.003662	-0.07431	0.031586	-0.026093	-0.022583	0.93674	0.23987	-0.016327	-0.083618	0.042877	-0.24033	-0.41412	-0.075989	0.059052	0.085754	-0.48798	0.023346	0.018921	-0.069885	0.091095	-0.033569	0.30182	0.22339	0.003357	-0.030518
43.042	-0.023346	0.81161	-0.033875	-0.014343	-0.14633	0.1416	0.15869	0.007019	-0.011902	0.02655	-0.012207	-0.018463	0.4776	0.22766	-0.018616	-0.10193	0.045624	-0.24887	-0.49439	-0.10117	0.037537	0.40939	-0.48447	0.055084	0.050049	-0.027924	-0.027771	-0.027008	0.18601	0.039825	0.005035	-0.018311
43.043	-0.014648	0.91339	-0.12329	-0.007782	-0.18143	0.2095	0.2243	0.007629	0.080261	0.001221	-0.005341	-0.011444	-0.8548	0.21759	-0.058136	-0.10666	0.016327	-0.26672	-0.48721	-0.09613	0.13748	0.47195	-0.4773	0.080872	0.2713	-0.015717	-0.015869	-0.016022	-0.13306	-0.10712	0	-0.023193
43.044	0.005798	1.0083	-0.18356	0.013885	-0.12131	0.042267	0.2652	0.010834	0.07431	-0.040741	-0.027161	-0.005035	-0.87311	0.21194	-0.13367	-0.10727	0.00473	-0.29724	-0.43594	0.048828	0.19287	0.17914	-0.39749	-0.050812	0.30655	-0.029755	0.050201	-0.007019	-0.43533	-0.065155	-0.004883	-0.028839
43.045	0.03418	0.94391	-0.069885	0.036011	-0.066223	-0.28625	0.29556	0.000305	-0.052185	-0.054474	-0.015106	-0.00473	-0.3244	0.11414	-0.20248	-0.11154	0.000763	-0.29663	-0.3981	0.29282	0.14221	0.005798	-0.3923	-0.045929	0.3508	0.009766	0.017395	-0.013733	-0.37308	-0.15671	0	-0.023193
43.046	0.037384	0.91522	0.077362	0.051117	-0.00885	-0.40115	0.24811	0	-0.054016	-0.009918	0.012054	-0.013428	0.33142	0.031128	-0.17746	-0.11063	0.039063	-0.31021	-0.40649	0.36072	0.05127	0.004578	-0.28503	-0.068512	0.30594	0.13214	-0.07782	-0.065308	0.007324	-0.44098	-0.000458	-0.020294
43.047	0.026855	0.79071	0.14984	0.03067	0.057526	-0.36346	0.1947	0.002747	-0.018921	0.038147	0.007324	-0.020142	0.28	0.07843	-0.071716	-0.097351	0.036163	-0.24719	-0.43182	0.29617	0.041351	-0.066528	-0.42694	-0.014343	0.32425	0.121	-0.051727	-0.068817	0.54245	-0.3418	0.000305	-0.019836
43.048	0.028839	0.6395	0.06012	-0.008087	0.13779	-0.36301	0.15503	0.00885	-0.058136	0.042725	-0.000763	-0.013885	-0.14862	0.15915	0.012054	-0.08667	0.012512	-0.29175	-0.51056	0.16556	0.007477	-0.13321	-0.51468	-0.05127	0.064392	0.043335	-0.022278	0.030518	0.72967	0.12604	0.000763	-0.014038
43.049	0.013275	0.5542	0.022736	-0.00946	0.17639	-0.29495	0.11978	0.019989	-0.16113	-0.041046	-0.016632	-0.023956	-0.3804	0.2388	0.068665	-0.072021	0.004272	-0.24994	-0.56305	0.021057	-0.13397	-0.10025	-0.45731	-0.15625	-0.86639	-0.017853	-0.045471	-0.008545	0.25696	0.58868	0.004883	-0.009613
43.05	0.005798	0.50278	0.007477	-0.021057	0.18997	-0.21805	0.051422	0.020599	-0.2002	-0.057068	-0.015869	-0.018158	-0.19684	0.20126	0.023193	-0.045013	0.017395	-0.21515	-0.63446	-0.063629	-0.12985	-0.20783	-0.42633	-0.14603	-0.48828	-0.10239	-0.017395	-0.029144	-0.13458	0.80475	0.001526	-0.017548
43.051	-0.006256	0.448	0.026245	-0.015106	0.1088	-0.08316	-0.003815	0.012207	-0.17548	-0.081024	-0.009308	-0.030365	-0.23239	0.14114	-0.042725	-0.045471	0.014191	-0.22751	-0.63644	-0.065765	0.11307	-0.15213	-0.42602	-0.035706	-0.17029	-0.022583	-0.022736	-0.085144	-0.16617	0.88638	0.010376	-0.021057
43.052	-0.013123	0.37186	0.017242	-0.001678	0.018921	0.053253	0.056915	0.014191	-0.077209	-0.15976	0.002289	-0.036469	-0.32211	0.16724	-0.043335	-0.013123	-0.035095	-0.19058	-0.18601	-0.024719	-0.038147	-0.007019	-0.53497	0.09964	-0.067444	-0.091705	-0.011902	0.019684	-0.3392	0.64651	-0.00061	-0.024414
43.053	-0.009766	0.28153	0.007629	0.008087	0.008698	0.17899	0.18555	0.007477	0.0177	-0.10559	0.001221	-0.040894	-0.11459	0.033417	-0.033417	-0.000916	-0.050964	-0.20355	-0.11887	-0.033875	-0.21332	0.13458	-0.51453	0.13931	-0.015717	-0.15854	0.013885	0.021362	-0.55878	0.03067	0.00061	-0.02533
43.054	0.003357	0.22079	0.065765	0.004578	0.013123	0.19638	0.13153	0.005646	0.004425	-0.068665	0.000763	-0.050964	0.025024	0.024567	-0.045013	0.023041	-0.050964	-0.20905	-0.41779	-0.092468	0.000916	0.089417	-0.38666	0.14572	0.013733	-0.080719	-0.018616	-0.12711	-0.14938	0.076447	0.003967	-0.033417
43.055	-0.007629	0.22644	0.068359	-0.007782	0.007019	0.19516	0.064087	0.021515	0.004883	-0.045013	-0.017242	-0.052795	0.19409	-0.003662	-0.029297	0.019836	-0.044403	-0.25299	-0.48141	-0.067139	0.40146	0.007935	-0.46875	0.1474	0.003662	0.074158	-0.041199	-0.12863	0.18829	0.48141	0.004425	-0.016174
43.056	-0.017853	0.26337	0.075531	-0.006409	-0.038605	0.15671	-0.012665	0.013733	0.049744	-0.022888	-0.024719	-0.037079	0.057983	-0.030212	0.011444	0.027924	-0.033264	-0.29785	-0.16007	-0.035706	0.50323	0.032043	-0.57297	0.13138	0.009918	0.1442	-0.017242	0.076752	0.24429	0.61966	0.000763	-0.017242
43.057	-0.021362	0.29251	0.05127	0.001221	-0.09491	0.26321	0.045776	0.028839	0.11414	0.10086	-0.018768	-0.045166	-0.31784	-0.075836	0.05249	0.034332	-0.001678	-0.34607	-0.22461	0.038452	0.29892	0.11841	-0.43564	0.074005	-0.004425	-0.016632	0.093384	0.33203	0.5101	0.7962	0.001831	-0.016022
43.058	-0.045013	0.31509	0.02533	-0.000916	-0.13748	0.34485	0.076752	0.039215	0.13519	0.17136	-0.021362	-0.04837	-0.4773	-0.040436	0.069733	0.030823	0.009003	-0.37918	-0.43686	0.016479	0.25574	0.13641	-0.37857	-0.004578	-0.041199	-0.077972	0.1297	0.16342	0.62241	2.1111	0.000305	-0.00885
43.059	-0.04837	0.31555	0.14252	-0.004883	-0.11292	0.19714	0.092163	0.024414	0.20264	0.15396	-0.046844	-0.063477	-0.43427	0.002441	0.044708	0.032806	0.007324	-0.39566	-0.063934	-0.010223	0.22797	0.056152	-0.50339	0.014191	-0.089722	0.069733	0.068512	-0.69015	0.60852	1.4568	-0.001831	-0.004272
43.06	-0.041199	0.35767	0.15442	-0.015411	-0.014496	0.031891	0.11063	0.022736	0.22049	0.14847	-0.031281	-0.070496	-0.15503	0.03418	0.071716	0.027161	0.011292	-0.42893	-0.15152	-0.042877	0.13962	-0.010529	-0.53299	0.094604	-0.054474	0.10513	0.093842	-0.77515	0.21225	0.36545	0.000916	-0.024719
43.061	-0.024109	0.3923	0.16052	0.004425	0.019531	-0.11917	0.098114	-0.009003	0.1976	0.044403	-0.001678	-0.036469	-0.16312	0.071716	0.15335	0.027924	0.020294	-0.42374	-0.30487	-0.022888	0.1091	-0.085144	-0.47455	0.056458	-0.029907	0.066833	0.15137	0.14999	-0.09903	-0.71686	-0.000305	-0.037842
43.062	-0.010681	0.40848	0.096741	-0.015564	0.012817	-0.24994	0.089417	-0.02533	0.099792	-0.18387	-0.030518	-0.043793	0.13779	0.13428	0.19241	0.010834	0.03067	-0.49164	-0.40787	0.009155	0.031738	-0.25269	-0.41702	0.16205	0.09079	-0.018616	0.019379	0.18982	-0.007172	-1.1266	0.001373	-0.026703
